<!--?xml version="1.0" standalone="no"?-->
              <svg id="sw-js-blob-svg" viewBox="0 0 100 100" xmlns="http://www.w3.org/2000/svg" version="1.1">
                    <defs> 
                        <linearGradient id="sw-gradient" x1="0" x2="1" y1="1" y2="0">
                            <stop id="stop1" stop-color="rgba(255, 255, 255, 1)" offset="0%"></stop>
                            <stop id="stop2" stop-color="rgba(3, 242, 196, 1)" offset="100%"></stop>
                        </linearGradient>
                    </defs>
                <path fill="url(#sw-gradient)" d="M22.8,-32.1C29.3,-26.7,34.1,-19.7,37.2,-11.7C40.2,-3.8,41.6,5.1,39,12.6C36.5,20.2,30.1,26.4,22.9,30.6C15.8,34.9,7.9,37.1,0.4,36.5C-7.1,35.9,-14.1,32.6,-21.4,28.4C-28.6,24.2,-36.1,19.1,-39.2,12.1C-42.3,5.1,-41.1,-3.9,-38.4,-12.5C-35.7,-21.2,-31.5,-29.4,-24.9,-34.8C-18.2,-40.2,-9.1,-42.7,-0.5,-42.1C8.2,-41.4,16.3,-37.6,22.8,-32.1Z" width="100%" height="100%" transform="translate(50 50)" stroke-width="0" style="transition: all 0.3s ease 0s;" stroke="url(#sw-gradient)"></path>
              </svg>