<?xml version="1.0" encoding="utf-8"?>
<!-- Generator: Adobe Illustrator 21.1.0, SVG Export Plug-In . SVG Version: 6.00 Build 0)  -->
<!DOCTYPE svg PUBLIC "-//W3C//DTD SVG 1.1//EN" "http://www.w3.org/Graphics/SVG/1.1/DTD/svg11.dtd">
<svg version="1.1" id="Layer_1" xmlns="http://www.w3.org/2000/svg" xmlns:xlink="http://www.w3.org/1999/xlink" x="0px" y="0px"
	 viewBox="0 0 300 74" style="enable-background:new 0 0 300 74;" xml:space="preserve">
<style type="text/css">
	.st0{fill:#FF4500;}
	.st1{fill:#FFFFFF;}
</style>
<title>logo</title>
<desc>Created with Sketch.</desc>
<g id="Artwork">
	<circle class="st0" cx="235" cy="25.7" r="4.6"/>
	<path class="st1" d="M169.4,45.3c2.3,0,3.6-1.7,3.5-3.3c0-0.9-0.1-1.4-0.2-1.9c-1.4-6-6.2-10.4-12-10.4c-6.8,0-12.4,6.2-12.4,13.8
		s5.5,13.8,12.4,13.8c4.3,0,7.4-1.6,9.6-4c1.1-1.2,0.9-3.1-0.4-4c-1.1-0.7-2.4-0.5-3.4,0.3c-1,0.8-2.8,2.5-5.7,2.5
		c-3.5,0-6.4-3-7.1-6.9L169.4,45.3L169.4,45.3z M160.6,34.9c3.1,0,5.8,2.4,6.8,5.8h-13.6C154.8,37.3,157.5,34.9,160.6,34.9z"/>
	<path class="st1" d="M148.5,32.4c0-1.3-1-2.3-2.2-2.6c-3.8-0.6-7.3,0.8-9.4,3.4v-0.3c0-1.6-1.3-2.6-2.6-2.6c-1.4,0-2.6,1.2-2.6,2.6
		v21.2c0,1.4,1,2.6,2.4,2.7c1.5,0.1,2.8-1.1,2.8-2.6v-11c0-4.9,3.6-8.8,8.7-8.3c0.2,0,0.3,0,0.5,0C147.4,34.9,148.5,33.8,148.5,32.4
		z"/>
	<path class="st1" d="M237.6,35.2c0-1.4-1.2-2.6-2.6-2.6c-1.4,0-2.6,1.2-2.6,2.6c0,0.1,0,18.2,0,19c0,1.4,1.2,2.6,2.6,2.6
		c1.4,0,2.6-1.2,2.6-2.6C237.6,53.4,237.6,35.3,237.6,35.2z"/>
	<path class="st1" d="M198.9,20.8c0-1.4-1.2-2.6-2.6-2.6l0,0c-1.4,0-2.6,1.2-2.6,2.6v11.6c-1.8-1.8-4-2.6-6.6-2.6
		c-6.8,0-12.4,6.2-12.4,13.8s5.5,13.8,12.4,13.8c2.6,0,4.9-0.9,6.7-2.7c0.2,1.2,1.3,2.1,2.6,2.1c1.4,0,2.6-1.2,2.6-2.6L198.9,20.8
		L198.9,20.8z M187.1,52.2c-4,0-7.2-3.9-7.2-8.7c0-4.8,3.2-8.7,7.2-8.7s7.2,3.9,7.2,8.7S191.1,52.2,187.1,52.2z"/>
	<path class="st1" d="M226,20.8c0-1.4-1.2-2.6-2.6-2.6l0,0c-1.4,0-2.6,1.2-2.6,2.6v11.6c-1.8-1.8-4-2.6-6.6-2.6
		c-6.8,0-12.4,6.2-12.4,13.8s5.5,13.8,12.4,13.8c2.6,0,4.9-0.9,6.7-2.7c0.2,1.2,1.3,2.1,2.6,2.1c1.4,0,2.6-1.2,2.6-2.6V20.8z
		 M214.2,52.2c-4,0-7.2-3.9-7.2-8.7c0-4.8,3.2-8.7,7.2-8.7s7.2,3.9,7.2,8.7S218.2,52.2,214.2,52.2z"/>
	<path class="st1" d="M250.7,54.2V34.9h2.3c1.2,0,2.3-0.9,2.4-2.2c0.1-1.3-1-2.5-2.3-2.5h-2.4v-3.6c0-1.4-1-2.6-2.4-2.7
		c-1.5-0.1-2.8,1.1-2.8,2.6v3.8h-2.2c-1.2,0-2.3,0.9-2.4,2.2c-0.1,1.3,1,2.5,2.3,2.5h2.2v19.3c0,1.4,1.2,2.6,2.6,2.6l0,0
		C249.6,56.8,250.7,55.7,250.7,54.2z"/>
	<g>
		<circle class="st0" cx="80.9" cy="37" r="36.3"/>
		<path class="st1" d="M105.1,37c0-2.9-2.4-5.3-5.3-5.3c-1.4,0-2.7,0.6-3.7,1.5c-3.6-2.6-8.6-4.3-14.2-4.5l2.4-11.4l7.9,1.7
			c0.1,2,1.7,3.6,3.8,3.6c2.1,0,3.8-1.7,3.8-3.8c0-2.1-1.7-3.8-3.8-3.8c-1.5,0-2.8,0.9-3.4,2.1l-8.8-1.9c-0.3,0-0.5,0-0.7,0.1
			c-0.2,0.1-0.3,0.3-0.4,0.6l-2.7,12.7c-5.6,0.2-10.7,1.9-14.4,4.5c-1-0.9-2.3-1.5-3.7-1.5c-2.9,0-5.3,2.4-5.3,5.3
			c0,2.2,1.3,4,3.1,4.8c-0.1,0.5-0.1,1-0.1,1.6c0,8.1,9.5,14.8,21.2,14.8s21.2-6.6,21.2-14.8c0-0.5,0-1.1-0.1-1.6
			C103.8,41,105.1,39.2,105.1,37z M68.8,40.8c0-2.1,1.7-3.8,3.8-3.8c2.1,0,3.8,1.7,3.8,3.8c0,2.1-1.7,3.8-3.8,3.8
			C70.5,44.6,68.8,42.8,68.8,40.8z M89.9,50.8c-2.6,2.6-7.5,2.8-9,2.8c-1.5,0-6.4-0.2-9-2.8c-0.4-0.4-0.4-1,0-1.4
			c0.4-0.4,1-0.4,1.4,0c1.6,1.6,5.1,2.2,7.6,2.2s6-0.6,7.6-2.2c0.4-0.4,1-0.4,1.4,0C90.2,49.8,90.2,50.4,89.9,50.8z M89.2,44.6
			c-2.1,0-3.8-1.7-3.8-3.8c0-2.1,1.7-3.8,3.8-3.8c2.1,0,3.8,1.7,3.8,3.8C93,42.8,91.3,44.6,89.2,44.6z"/>
	</g>
</g>
</svg>
