<svg class="_1mvTX6krm3Q2d1CSyUm28s " viewBox="0 0 20 20" xmlns="http://www.w3.org/2000/svg"><path fill="inherit" fill-rule="evenodd" d="m8.986223,16.927949l2.240493,-3.024991l-3.521864,-5.376734c-0.102125,-0.156 -0.274999,-0.251499 -0.461249,-0.253749c-0.158375,-0.01 -0.362749,0.0875 -0.468249,0.241249l-5.239359,7.532977c-0.12,0.170624 -0.1335,0.394124 -0.037,0.579248c0.0975,0.185249 0.287499,0.301999 0.497498,0.301999l6.989729,0zm8.513724,3.071991l-14.999954,0c-1.378746,0 -2.499992,-1.121247 -2.499992,-2.499992l0,-14.999954c0,-1.378746 1.121247,-2.499992 2.499992,-2.499992l14.999954,0c1.378746,0 2.499992,1.121247 2.499992,2.499992l0,14.999954c0,1.378746 -1.121247,2.499992 -2.499992,2.499992zm0.803498,-3.071991c0.221249,0 0.420999,-0.129125 0.511873,-0.331249c0.091,-0.201999 0.05375,-0.437749 -0.092,-0.602748l-4.238862,-4.778985c-0.11125,-0.12575 -0.257124,-0.186249 -0.444499,-0.188749c-0.169624,0.008 -0.325624,0.091 -0.425499,0.226874l-3.540739,4.778985c-0.126875,0.170749 -0.145,0.398749 -0.0495,0.587123c0.094375,0.189749 0.288749,0.308749 0.500748,0.308749l7.778726,0l-0.00025,0zm-2.982116,-11.404215c0,-1.173746 -0.952497,-2.124994 -2.124994,-2.124994c-1.174996,0 -2.124994,0.951247 -2.124994,2.124994c0,1.172496 0.949997,2.123744 2.124994,2.123744c1.172496,0 2.124994,-0.951247 2.124994,-2.123744z"></path></svg>